/* XPM */
static char *_57865de4ce348c5a0f37058f9779a32AtBlFXFsOsZTw4B3[] = {
/* columns rows colors chars-per-pixel */
"64 64 75 1 ",
"  c black",
". c #070000",
"X c #0F0707",
"o c #070B07",
"O c #0F0B07",
"+ c #0B0B0F",
"@ c gray6",
"# c #1B0F00",
"$ c #170B0B",
"% c #170F0B",
"& c #0B130B",
"* c #1F170B",
"= c #1B130F",
"- c #0F1B13",
"; c #13131B",
": c gray12",
"> c #231307",
", c #2F170B",
"< c #271B0F",
"1 c #3B1F0F",
"2 c #271F17",
"3 c #1F2B1F",
"4 c #2F2313",
"5 c #372B17",
"6 c #3F2F17",
"7 c #372B1F",
"8 c #1B1B27",
"9 c #371F23",
"0 c #2F2F2F",
"q c #2B3B2F",
"w c #272733",
"e c #3F3F3F",
"r c #4B2313",
"t c #572B17",
"y c #47331B",
"u c #632F1F",
"i c #433327",
"p c #533723",
"a c #533F33",
"s c #633F2B",
"d c #733723",
"f c #7F3B2B",
"g c #5F4B3B",
"h c #6F4733",
"j c #7F533F",
"k c #3F5347",
"l c #4B4B4B",
"z c #475B4F",
"x c #5B5B5B",
"c c #6B5747",
"v c #576B5F",
"b c #7B6353",
"n c gray42",
"m c #677B6F",
"M c #7B7B7B",
"N c #8F4333",
"B c #9F4F33",
"V c #8B5F47",
"C c #876F5F",
"Z c #9B6B53",
"A c #A77B5F",
"S c #977B6F",
"D c #6F837B",
"F c #B7876B",
"G c #A3877B",
"H c #C3937B",
"J c #8B8B8B",
"K c #9B9B9B",
"L c #AF978B",
"P c #BFA39B",
"I c gray67",
"U c #BBBBBB",
"Y c #D3A38B",
"T c #CBB3A7",
"R c #DBC3BB",
/* pixels */
"0LGJMCbJDGGJ:<CMMSCxMGCJn>>=+>>@+>,2-<>gxbbc0pccls4O:iyae7770i,@",
"iMFGSJFSSJHC>+ZCSnASSDHGSo>rr4t1t7dsui,aZbjsjgjbVgrOtidshidsh7u*",
"7slccjlggVxc>>eggjlgpseag1+,1r=,,1*1,r0phd0ppdisVj0*1t21rt4,>,==",
":++++@w+oo+ @++++@:0:+  +:0w002egi237:w:=::8ie:;:=;;:==;:i0+o==+",
"MGSSJb<ieas7@7cclja0xaia07gbnbb0ePTIKLCJJPLS:aPIKLGxDLLKJ7cKKPPM",
"bnVbCc>psgVhraZhjgrOpgNjjcVjjcB2*lACSnACCnZC%+ASGJFSSJFSC tGGJAC",
"gjlgsj+7rda6,1ipsu3:rr:5ru7psdi44uegghlcgjei%,egaslchjxca13bsjlg",
":++;@:-:::=:w::;::&:0;@+:e0-:::8w@o +;0++@@ +@+ o +:;+@++:w+;++;",
"zPPKKLGKKPTIeiPKJLSnJPPIJ7aCnCb7wcbbxciIITPKJLTUITS=JPPIKGPIIPTM",
"7JHJLMHGGMFS> FGGJFSGKHGG+rVVcZjhgVVVg>MLJLKLKYILJjXgJFGPMFGSDHa",
"2jxbbjlgajlgp,egcjlcbjlgc,-ppu7ytu7ppu;icVxCbVxnCV0%aVnMbAlggjli",
";+@++@-++++ :;+ ++:;ooo +@=;3:=:e::+::: o+  ;;+ + o+o   @:- o   ",
":pha0i2i0pp2+>770y<=nCSSngbJJGS0-asaxi>2:4,=+gLKKGClMLLKD><70ia2",
"hgZjja>yVgfpt2r1u7>.hCZCCCZCCCA2$7fpsatr1=1,X@AGLJAbCMASb >yjifh",
"ptispt+6uu=>,t=,rr X1ulcjjigjha7>r7r,1=,,,+>$,egcjliis0aa> 4r1:7",
":=::::;::2@+:a0;:2+ ++++-0:+@@;;:22:==0-@@@+@-o o++-+++ ++=+@++;",
"0bbbxcacnbSc+cPIKPPJIPPIK7SIKPPMnPTIKS7MKLPKmCPKKLa=JPPIKLLIITTJ",
">cVVVcjhjbZj$;YLGJYPLJYGS rSLMAGGMFGSD>gSMFGLJFLGJsXbJPIPKTIPKFe",
"=uapsd0psjip41lccVxccs0ga>-gcjlcbjlcah8aghlcbVegcj0=gVeccZlbCjl2",
":=:;:0ew:=@ ;;+ ++-;o    @+  ++;w+++++:;+++ -@+  o++o    ;:    +",
"JPPKJS9MJLLMxCGJJGc=nSSJxcbMMGGeeCCcea7axbbg;gLKJSblnLGJm>CIKPPJ",
"LKHGLM>cGJHGLMFSSMsXbJFSCnFGLMFi#cZbZcVbVbVc>;FLLMFLGMASS sLLJGG",
"cjxbCZ;icVlgahlccj0Oajeahh0ghjla4t:ipdlhjjii<1eggjeacs0gc,0bCAxg",
":@+ +;0-&@;+:-o +@:+ooo o;@ o++:e@=;::0:@:=+;:+ ++@;+ + +++   ++",
":spi01,70as2+ibbnbginGCcl>7alccelCCcnc7nMCCbecSMxbp:esgi0,470aa2",
",cBhh2tphad,X+ZCVCZGGnACCorbVbASFbVCAg,cGMZCZbZCACsOsbZhhaVhhgV4",
"pfipsr=rufp,$1eapjlgsVzcp,:psdiphfaphd:isdlghhippu:=1u711rippu47",
"022w:0e::22+;:=;::00;+++:w:;=;=:e::+::w:@@@+::@+@o@8:::;=0w+=::8",
"lbbbxciJJGLJxCLJKPC=:pial7ii0pa0qbCbxciglapi;aCcxga7lbcbe<ie0gba",
"hcVbVi>cGMASSMHLLKhXtgNjhbNjjgB4<gZVZbAjjcNp#&ZCVgVVVcZCj rshgZV",
"tfishf-abVzcgjlcbj0O>1:yudasddaaafapufiptu762raspuipsdispi:1tdiy",
"2:=@=0;+++++:@ +-@:8:&&;:le:::=8el0;:0e:===;:03;:-:0:-:;@0:+@-:0",
"qhcges7ieaai:iCcxCblmGCMn77i0ip2:jbglgibnhgg0aCCvCaiITTUIGPIIPPM",
",aVVVgNhpifV>@FcASACZJHGA 1hhpfhjaBhhi,cFCAbZcZCVCuOGIYITITITIPx",
"7faptd-pur=421ahhfepphlcs,@ytt2,tdistdwisVapsdepsd-=iVxbcjvbbCvx",
":=:;=20:=:=+@@@+;=3w+oo+=:0:::=0l00:=:0:=:;;30=;==:-     +o    +",
"nGSKJSinDLGnlbLMJLc0JPPIJCSKKPLx0CCnxcacnCgcwaCCnCg0eccal<gKDGSx",
"GJHSGm>bGJHGGJFCbMuXCKHLPKHLLJHi%cZVVgZbVcNs=+jCVcZbZbACV rLGMHG",
"cjlcbV8gjVxccjxccj0Xijlaajeacje2#r0ppdghsdiy>,2ipdippt0is,@ccjlc",
":@@+@:w;@;; :-@++o@  o   -@ ooo;0&=+;-e0::=@-0@+;@::;+++@@@  oo;",
"ebbnnbgMnGGn0iGMDGSnMGLnl4CKKLLMJTTIKPcCxCcawacblg72JPPKJCSKJSLx",
"2nZCbCASGJFb4;FGGJHLGMYKb pKLKPKLKYKLJ,aZSFCVbAbZb1XCKHILKHKLIYl",
"7hechjlbcjxb<>zccVxgapzSc>:cCVlbcjkCbVw7pfghjfepph-=aVlcbZxcbZzi",
":@o o@:;;@;+;+++++-:+o  +0@     +    +0:@++;00=+&&&;    +;o +o  ",
"xLGJDSixxCScebCCmba2KPPKMSGKJLLn0bbxxganmSbc0bPKJLCxnGGJM2bJJLPM",
"GJHLPD>bSMHGSDZCGMuXSJHITIRITKYl=gFCZMVCVCFC>;FLLKHGGMFGG pIPKPK",
"bZlgbV;isjxbjVxgbj0OaSxcCVnCcVle<t0shjgssfcs<1egajlgcjlgp>:nbbxM",
";++++:0+@@;+=::++o@;+o+ +@+  o+;0=@+=:e:@@@+::o o ++o   ooo  oo ",
"eSSnxccnnCSJ0gLJJGCnJGLJJi4iw7i70aai0ainmCCx0icxxg4*JPPKJCCMDGLx",
"2nASSnAGGMFG2-HLLJYIPKYLG ,hhaNbZCBVZg>gACACACASACrXSITILKLJPKHl",
"<hzcshlgajlci1lbcjeccjlai> <1u7shfapsdwisdeppheshd-%ajzccjzlcSxi",
";++ o@:;@@@ ;+    ++++o  ;;++=:0e0:;=:e:@+@+::++;@@+o +  @+     ",
"qccbxb7JJGLJnSLKJLb=nGGMxabnnSGxeGLJMCgxnSSnwacclci2w7ai:2axlbce",
"ACACAc,MPKLIPITITIVXCJYPPJYLLJHi=nHGSMHLLJHS>+VZZbZVjgAZh tGCMYL",
"sslghj:cCVvnbCnnbClOaslggjxbbVxa7hxgjslchVxg<1ipsdiytt0pp,:ghueg",
":;++@:0+o+  ;@    @+;o+ +@- o++:e@+++@:;@@;+@::;=:00:=@;:00++o++",
";iii:,,2:,>* 4aleig0xbbxe>iaegg00bbnng7nnCCc0aCnmSc00acbl7pl0ia:",
"%aBjVgBsdpurX:FCACFSFSHLA 1VVCACACZCAg>gSCFGAMASGJhOpgjZVbAZVcZ2",
">tisuu2r1r2#X,zhhfgpjjasp>@shjgssfashf8ihs0shdepph0%1u7psdiphdi2",
"::0::::;@=@ +@&@;@0--@@+;:=;::;we22:=:0:-:;+::;+@@:w:==;:e0-:=@;",
"eCSnnbiKJLPKxSLKKLS:ecgl04acnbc0ecgcli,ieag7;acaega70sgxl7CMmSSl",
"AnASAc>CPKTITITITIAOjSFSACZCVbA2=cAZVcBjVcBj$+ZZAbZVZbAAVosGPJHG",
"Vhepsj+gSSxgchxbbVl*rfassfiirdai7uipsNapud2p>,ishfashdiss6igcheg",
"0::;:eq++++;;++ o+wl:;:-000-=::ql02:0axe0:::0l3@::0w00:::ee+@&:;"
};
